<?xml version="1.0" standalone="no"?>
<!DOCTYPE svg PUBLIC "-//W3C//DTD SVG 20010904//EN"
 "http://www.w3.org/TR/2001/REC-SVG-20010904/DTD/svg10.dtd">
<svg version="1.0" xmlns="http://www.w3.org/2000/svg"
 width="600.000000pt" height="600.000000pt" viewBox="0 0 600.000000 600.000000"
 preserveAspectRatio="xMidYMid meet">
<metadata>
Created by potrace 1.15, written by Peter Selinger 2001-2017
</metadata>
<g transform="translate(0.000000,600.000000) scale(0.100000,-0.100000)"
fill="#000000" stroke="none">
<path d="M2495 5494 c-393 -28 -566 -55 -786 -119 -388 -114 -621 -332 -689
-643 -20 -91 -20 -120 -18 -1490 l3 -1397 28 -80 c36 -102 93 -199 162 -273
l54 -59 3 -260 3 -260 30 -49 c19 -30 49 -60 79 -79 l49 -30 212 0 212 0 49
30 c30 19 60 49 79 79 30 49 30 50 33 218 l3 168 999 0 999 0 3 -168 c3 -168
3 -169 33 -218 19 -30 49 -60 79 -79 l49 -30 212 0 212 0 49 30 c30 19 60 49
79 79 l30 49 3 260 3 260 54 59 c69 74 126 171 162 273 l28 80 3 1397 c2 1371
2 1399 -18 1490 -68 314 -305 532 -701 647 -163 47 -325 75 -579 102 -98 10
-1093 21 -1205 13z m2005 -1619 l0 -625 -1500 0 -1500 0 0 625 0 625 1500 0
1500 0 0 -625z m-2468 -1418 c74 -36 139 -101 175 -175 25 -51 28 -68 28 -157
0 -89 -3 -106 -28 -157 -137 -279 -527 -279 -664 0 -33 67 -43 185 -22 259 28
102 121 202 228 244 73 30 208 23 283 -14z m2250 0 c74 -36 139 -101 175 -175
25 -51 28 -68 28 -157 0 -89 -3 -106 -28 -157 -137 -279 -527 -279 -664 0 -33
67 -43 185 -22 259 28 102 121 202 228 244 73 30 208 23 283 -14z"/>
</g>
</svg>
